<svg id="Laag_1" data-name="Laag 1" xmlns="http://www.w3.org/2000/svg" viewBox="0 0 256 66.67"><defs><style>.cls-1{fill:#fff;}</style></defs><path class="cls-1" d="M156.63,3.32V55.56a7.53,7.53,0,0,0,7.52,7.53h14.93V55.42H167.5V3.32Z"/><path class="cls-1" d="M131.34,3.32h0V55.56a7.53,7.53,0,0,0,7.53,7.53h14.36V55.42h-11V40.83h11V33.5H142.29V10.92h10.88V3.33Z"/><path class="cls-1" d="M240.48,63.08V3.33H244a7.52,7.52,0,0,1,7.52,7.52V63.08Z"/><path class="cls-1" d="M237.49,63.08V10.85A7.52,7.52,0,0,0,230,3.33h-40.8a7.53,7.53,0,0,0-7.52,7.53V63.08H192.5V10.9h11.57V63.08H215V10.9h11.44V63.08Z"/><path class="cls-1" d="M94.88,63.1V41.21h3.38a7.52,7.52,0,0,1,7.52,7.52V55.5l10.87,0V33.37H94.88V10.85a7.53,7.53,0,0,1,7.52-7.53h25.12l0,15.08h-3.34a7.52,7.52,0,0,1-7.52-7.52h-11V25.5h21.87l0,30.06A7.52,7.52,0,0,1,120,63.08Z"/><polygon class="cls-1" points="45.05 3.36 45.05 47.12 77.91 47.12 45.05 3.36"/><polygon class="cls-1" points="35.87 3.36 35.87 47.12 3.01 47.12 35.87 3.36"/><polygon class="cls-1" points="62.04 49.42 43.16 49.42 43.16 22.82 40.57 20.17 38.01 22.82 38.01 49.42 19.14 49.42 10.33 63.08 70.89 63.08 62.04 49.42"/></svg>