<?xml version="1.0" encoding="utf-8"?>
<!-- Generator: Adobe Illustrator 22.0.0, SVG Export Plug-In . SVG Version: 6.00 Build 0)  -->
<svg version="1.1" id="Livello_1" xmlns="http://www.w3.org/2000/svg" xmlns:xlink="http://www.w3.org/1999/xlink" x="0px" y="0px"
	 viewBox="0 0 574 188.6" style="enable-background:new 0 0 574 188.6;" xml:space="preserve">
<style type="text/css">
	.st0{fill:#2A3056;}
</style>
<polygon class="st0" points="294.3,84.8 258.6,84.8 258.6,60.4 357.4,60.4 357.4,84.8 321.8,84.8 321.8,185.3 294.3,185.3 "/>
<path class="st0" d="M453,92.9c-5.5-6.5-13.4-10.2-23.6-10.2c-20.8,0-36.2,16.9-36.2,40.2c0,23.3,15.3,40.2,35.3,40.2
	c11.1,0,20.1-4.9,25.8-13.4l22.9,17.1c-10.4,14.8-28.1,21.7-45.2,21.7c-39,0-67.4-25.6-67.4-65.6c0-40,28.4-65.6,67.4-65.6
	c13.9,0,31.6,4.8,42.2,18.4L453,92.9z"/>
<path class="st0" d="M553.9,90.9c-4.4-5.6-13.2-8.3-19.9-8.3c-7.7,0-18.5,3.5-18.5,12.9c0,22.8,57.5,8.1,57.5,51.9
	c0,27.9-22.4,41.1-48.2,41.1c-16.1,0-30.2-4.8-42-15.7l19.6-21.5c5.6,7.4,14.8,11.8,24,11.8c9,0,19-4.2,19-13.1
	c0-22.9-58.6-10.6-58.6-52.2c0-26.6,23.1-40.6,47.6-40.6c14.1,0,27.7,3.7,38.3,13.1L553.9,90.9z"/>
<polygon class="st0" points="267.6,38.5 265.6,38.5 265.6,21.3 259.3,21.3 259.3,19.5 273.9,19.5 273.9,21.3 267.6,21.3 "/>
<path class="st0" d="M278.7,38.5h-1.9v-19h5.6c0.9,0,1.8,0.1,2.6,0.3c0.8,0.2,1.5,0.5,2.1,0.9c0.6,0.4,1,0.9,1.4,1.6
	c0.3,0.7,0.5,1.4,0.5,2.4c0,0.7-0.1,1.3-0.4,1.9c-0.3,0.6-0.6,1.1-1,1.5c-0.4,0.4-0.9,0.8-1.5,1c-0.6,0.3-1.2,0.4-1.9,0.5l5.5,9
	h-2.4l-5.3-8.9h-3.2V38.5z M278.7,28h3.3c1.6,0,2.7-0.3,3.6-0.8c0.8-0.6,1.3-1.4,1.3-2.5c0-0.6-0.1-1.1-0.4-1.6
	c-0.2-0.4-0.6-0.8-1-1c-0.4-0.3-0.9-0.5-1.5-0.6c-0.6-0.1-1.2-0.2-2-0.2h-3.4V28z"/>
<path class="st0" d="M292.6,38.5h-2.1l8.2-19h1.9l8.1,19h-2.1l-2.1-5h-9.8L292.6,38.5z M295.4,31.7h8.4l-4.2-10.1L295.4,31.7z"/>
<rect x="311.5" y="19.5" class="st0" width="1.9" height="19"/>
<polygon class="st0" points="331.9,35.7 332,35.7 332,19.5 333.9,19.5 333.9,38.5 331.5,38.5 320.5,22.2 320.4,22.2 320.4,38.5 
	318.5,38.5 318.5,19.5 320.9,19.5 "/>
<rect x="339" y="19.5" class="st0" width="1.9" height="19"/>
<polygon class="st0" points="359.4,35.7 359.4,35.7 359.4,19.5 361.3,19.5 361.3,38.5 358.9,38.5 347.9,22.2 347.8,22.2 347.8,38.5 
	345.9,38.5 345.9,19.5 348.3,19.5 "/>
<path class="st0" d="M380.8,23c-0.7-0.7-1.4-1.2-2.4-1.6c-0.9-0.4-2-0.6-3.1-0.6c-1.2,0-2.3,0.2-3.3,0.7c-1,0.5-1.8,1.1-2.5,1.8
	c-0.7,0.8-1.2,1.6-1.6,2.6c-0.4,1-0.6,2.1-0.6,3.2c0,1.1,0.2,2.1,0.6,3.1c0.4,1,0.9,1.9,1.6,2.6c0.7,0.8,1.5,1.3,2.5,1.8
	c1,0.5,2.1,0.7,3.3,0.7c1.1,0,2.1-0.1,2.9-0.3s1.6-0.5,2.2-0.9v-5.8H376v-1.7h6.3v8.6c-1,0.6-2.2,1.1-3.3,1.4
	c-1.2,0.3-2.4,0.5-3.7,0.5c-1.4,0-2.7-0.3-4-0.8c-1.2-0.5-2.3-1.2-3.1-2.1c-0.9-0.9-1.6-1.9-2-3.1c-0.5-1.2-0.7-2.5-0.7-4
	c0-1.4,0.3-2.8,0.8-4c0.5-1.2,1.2-2.3,2.1-3.1c0.9-0.9,1.9-1.6,3.1-2.1c1.2-0.5,2.5-0.8,3.9-0.8c1.5,0,2.8,0.2,4,0.7
	c1.1,0.5,2.1,1.1,2.9,1.9L380.8,23z"/>
<path class="st0" d="M409.9,35.4c-0.3,0.5-0.7,0.9-1.2,1.4c-0.5,0.4-1,0.8-1.6,1.1c-0.6,0.3-1.3,0.6-2,0.8c-0.7,0.2-1.5,0.3-2.4,0.3
	c-1.4,0-2.7-0.3-4-0.8c-1.2-0.5-2.3-1.2-3.1-2.1c-0.9-0.9-1.6-1.9-2-3.1c-0.5-1.2-0.7-2.6-0.7-4c0-1.4,0.3-2.8,0.8-4
	c0.5-1.2,1.2-2.3,2.1-3.1c0.9-0.9,1.9-1.6,3.1-2.1c1.2-0.5,2.5-0.8,3.9-0.8c0.7,0,1.4,0.1,2.1,0.2c0.7,0.2,1.3,0.4,1.9,0.6
	c0.6,0.3,1.1,0.6,1.6,1c0.5,0.4,0.9,0.8,1.2,1.2l-1.6,1.2c-0.2-0.3-0.5-0.6-0.8-0.9c-0.3-0.3-0.7-0.6-1.2-0.8
	c-0.5-0.2-0.9-0.4-1.5-0.6c-0.5-0.2-1.1-0.2-1.7-0.2c-1.2,0-2.3,0.2-3.3,0.7c-1,0.4-1.8,1-2.5,1.8c-0.7,0.8-1.2,1.6-1.6,2.6
	c-0.4,1-0.5,2-0.5,3.1c0,1.1,0.2,2.2,0.6,3.1c0.4,1,0.9,1.9,1.6,2.6c0.7,0.7,1.5,1.4,2.5,1.8c1,0.4,2.1,0.7,3.3,0.7
	c1.1,0,2.1-0.2,3.1-0.7c1-0.5,1.8-1.2,2.5-2.1L409.9,35.4z"/>
<polygon class="st0" points="415.1,36.8 425.3,36.8 425.3,38.5 413.2,38.5 413.2,19.5 425,19.5 425,21.2 415.1,21.2 415.1,27.8 
	424.3,27.8 424.3,29.5 415.1,29.5 "/>
<polygon class="st0" points="442.5,35.7 442.6,35.7 442.6,19.5 444.5,19.5 444.5,38.5 442.1,38.5 431.1,22.2 431,22.2 431,38.5 
	429.1,38.5 429.1,19.5 431.5,19.5 "/>
<polygon class="st0" points="455.6,38.5 453.7,38.5 453.7,21.3 447.3,21.3 447.3,19.5 462,19.5 462,21.3 455.6,21.3 "/>
<path class="st0" d="M466.7,38.5h-1.9v-19h5.6c0.9,0,1.8,0.1,2.6,0.3c0.8,0.2,1.5,0.5,2.1,0.9c0.6,0.4,1,0.9,1.4,1.6
	c0.3,0.7,0.5,1.4,0.5,2.4c0,0.7-0.1,1.3-0.4,1.9c-0.3,0.6-0.6,1.1-1,1.5c-0.4,0.4-0.9,0.8-1.5,1c-0.6,0.3-1.2,0.4-1.9,0.5l5.5,9
	h-2.4l-5.3-8.9h-3.2V38.5z M466.7,28h3.3c1.6,0,2.7-0.3,3.6-0.8c0.8-0.6,1.3-1.4,1.3-2.5c0-0.6-0.1-1.1-0.4-1.6
	c-0.2-0.4-0.6-0.8-1-1c-0.4-0.3-0.9-0.5-1.5-0.6c-0.6-0.1-1.2-0.2-2-0.2h-3.4V28z"/>
<polygon class="st0" points="482.8,36.8 492.9,36.8 492.9,38.5 480.8,38.5 480.8,19.5 492.6,19.5 492.6,21.2 482.8,21.2 482.8,27.8 
	491.9,27.8 491.9,29.5 482.8,29.5 "/>
<path class="st0" d="M512.6,22.6c-0.4-0.6-0.9-1-1.6-1.4c-0.7-0.4-1.4-0.5-2.3-0.5c-0.5,0-0.9,0.1-1.4,0.2c-0.5,0.1-0.9,0.4-1.3,0.7
	c-0.4,0.3-0.7,0.7-1,1.1c-0.2,0.5-0.4,1-0.4,1.6c0,0.6,0.1,1.1,0.4,1.5c0.2,0.4,0.5,0.7,0.9,1c0.4,0.3,0.8,0.5,1.3,0.7
	c0.5,0.2,1,0.4,1.5,0.5c0.7,0.2,1.3,0.4,2,0.7c0.7,0.2,1.3,0.6,1.8,1c0.5,0.4,1,0.9,1.3,1.5c0.3,0.6,0.5,1.4,0.5,2.3
	c0,1-0.2,1.8-0.5,2.5c-0.4,0.7-0.8,1.3-1.4,1.7c-0.6,0.4-1.2,0.8-2,1c-0.7,0.2-1.5,0.3-2.2,0.3c-0.6,0-1.1-0.1-1.7-0.2
	c-0.6-0.1-1.1-0.3-1.6-0.5c-0.5-0.2-1-0.5-1.4-0.9c-0.5-0.4-0.8-0.8-1.2-1.2l1.7-1.2c0.4,0.7,1,1.2,1.7,1.7c0.7,0.5,1.6,0.7,2.6,0.7
	c0.5,0,1-0.1,1.5-0.2c0.5-0.2,1-0.4,1.4-0.7c0.4-0.3,0.7-0.7,1-1.2c0.3-0.5,0.4-1,0.4-1.6c0-0.7-0.1-1.2-0.4-1.7
	c-0.3-0.4-0.6-0.8-1-1.1c-0.4-0.3-0.9-0.5-1.5-0.7c-0.6-0.2-1.1-0.4-1.7-0.6c-0.6-0.2-1.2-0.4-1.9-0.7c-0.6-0.3-1.2-0.6-1.6-1
	c-0.5-0.4-0.9-0.9-1.2-1.5c-0.3-0.6-0.5-1.3-0.5-2.2c0-0.9,0.2-1.7,0.6-2.4c0.4-0.7,0.9-1.2,1.4-1.6c0.6-0.4,1.2-0.7,2-0.9
	c0.7-0.2,1.4-0.3,2.1-0.3c1.3,0,2.4,0.2,3.3,0.7c0.9,0.5,1.6,1,2.1,1.6L512.6,22.6z"/>
<polygon class="st0" points="520.4,36.8 530.6,36.8 530.6,38.5 518.5,38.5 518.5,19.5 530.3,19.5 530.3,21.2 520.4,21.2 520.4,27.8 
	529.6,27.8 529.6,29.5 520.4,29.5 "/>
<polygon class="st0" points="536.3,36.8 545.1,36.8 545.1,38.5 534.3,38.5 534.3,19.5 536.3,19.5 "/>
<polygon class="st0" points="557.4,35.2 557.4,35.2 563.7,19.5 566.7,19.5 566.7,38.5 564.8,38.5 564.8,22 564.7,22 557.9,38.5 
	556.9,38.5 550,22 549.9,22 549.9,38.5 548,38.5 548,19.5 551,19.5 "/>
<rect x="571.7" y="19.5" class="st0" width="1.9" height="19"/>
<polygon class="st0" points="2.5,137.5 103.8,137.5 103.8,-0.6 "/>
<polygon class="st0" points="235.4,137.5 134.1,137.5 134.1,-0.6 "/>
<polygon class="st0" points="215.7,188.5 185.9,144.6 127.4,144.6 127.4,63.9 118.9,52.5 110.3,63.9 110.3,144.6 51.8,144.6 
	22,188.5 "/>
</svg>
